{
	"asset":{
		"generator":"Khronos glTF Blender I/O v3.5.30",
		"version":"2.0"
	},
	"extensionsUsed":[
		"KHR_materials_specular",
		"KHR_materials_ior"
	],
	"scene":0,
	"scenes":[
		{
			"name":"Scene",
			"nodes":[
				0
			]
		}
	],
	"nodes":[
		{
			"mesh":0,
			"name":"Cubo",
			"rotation":[
				1,
				0,
				0,
				1.6292068494294654e-07
			],
			"scale":[
				1.1258801221847534,
				1.3818718194961548,
				1.8428075313568115
			]
		}
	],
	"materials":[
		{
			"doubleSided":true,
			"extensions":{
				"KHR_materials_specular":{
					"specularColorFactor":[
						2.371357614441398,
						2.371357614441398,
						2.371357614441398
					]
				},
				"KHR_materials_ior":{
					"ior":1.4500000476837158
				}
			},
			"name":"Materiais",
			"pbrMetallicRoughness":{
				"baseColorTexture":{
					"index":0
				},
				"metallicFactor":0,
				"roughnessFactor":0.5
			}
		},
		{
			"doubleSided":true,
			"extensions":{
				"KHR_materials_specular":{
					"specularColorFactor":[
						2.371357614441398,
						2.371357614441398,
						2.371357614441398
					]
				},
				"KHR_materials_ior":{
					"ior":1.4500000476837158
				}
			},
			"name":"Materiais.001",
			"pbrMetallicRoughness":{
				"baseColorTexture":{
					"index":1
				},
				"metallicFactor":0,
				"roughnessFactor":0.5
			}
		}
	],
	"meshes":[
		{
			"name":"Cubo",
			"primitives":[
				{
					"attributes":{
						"COLOR_0":0,
						"POSITION":1,
						"TEXCOORD_0":2,
						"NORMAL":3
					},
					"indices":4,
					"material":0
				},
				{
					"attributes":{
						"COLOR_0":5,
						"POSITION":6,
						"TEXCOORD_0":7,
						"NORMAL":8
					},
					"indices":9,
					"material":1
				}
			]
		}
	],
	"textures":[
		{
			"sampler":0,
			"source":0
		},
		{
			"sampler":0,
			"source":1
		}
	],
	"images":[
		{
			"mimeType":"image/jpeg",
			"name":"parede",
			"uri":"parede.jpg"
		},
		{
			"mimeType":"image/png",
			"name":"chao",
			"uri":"chao.png"
		}
	],
	"accessors":[
		{
			"bufferView":0,
			"componentType":5123,
			"count":16,
			"normalized":true,
			"type":"VEC4"
		},
		{
			"bufferView":1,
			"componentType":5126,
			"count":16,
			"max":[
				0.8922314643859863,
				0.6627755165100098,
				0.5523772239685059
			],
			"min":[
				-0.8922314643859863,
				-0.6627755165100098,
				-0.5523772239685059
			],
			"type":"VEC3"
		},
		{
			"bufferView":2,
			"componentType":5126,
			"count":16,
			"type":"VEC2"
		},
		{
			"bufferView":3,
			"componentType":5126,
			"count":16,
			"type":"VEC3"
		},
		{
			"bufferView":4,
			"componentType":5123,
			"count":24,
			"type":"SCALAR"
		},
		{
			"bufferView":5,
			"componentType":5123,
			"count":8,
			"normalized":true,
			"type":"VEC4"
		},
		{
			"bufferView":6,
			"componentType":5126,
			"count":8,
			"max":[
				0.8922314643859863,
				0.6627755165100098,
				0.5523772239685059
			],
			"min":[
				-0.8922314643859863,
				-0.6627755165100098,
				-0.5523772239685059
			],
			"type":"VEC3"
		},
		{
			"bufferView":7,
			"componentType":5126,
			"count":8,
			"type":"VEC2"
		},
		{
			"bufferView":8,
			"componentType":5126,
			"count":8,
			"type":"VEC3"
		},
		{
			"bufferView":9,
			"componentType":5123,
			"count":12,
			"type":"SCALAR"
		}
	],
	"bufferViews":[
		{
			"buffer":0,
			"byteLength":128,
			"byteOffset":0,
			"target":34962
		},
		{
			"buffer":0,
			"byteLength":192,
			"byteOffset":128,
			"target":34962
		},
		{
			"buffer":0,
			"byteLength":128,
			"byteOffset":320,
			"target":34962
		},
		{
			"buffer":0,
			"byteLength":192,
			"byteOffset":448,
			"target":34962
		},
		{
			"buffer":0,
			"byteLength":48,
			"byteOffset":640,
			"target":34963
		},
		{
			"buffer":0,
			"byteLength":64,
			"byteOffset":688,
			"target":34962
		},
		{
			"buffer":0,
			"byteLength":96,
			"byteOffset":752,
			"target":34962
		},
		{
			"buffer":0,
			"byteLength":64,
			"byteOffset":848,
			"target":34962
		},
		{
			"buffer":0,
			"byteLength":96,
			"byteOffset":912,
			"target":34962
		},
		{
			"buffer":0,
			"byteLength":24,
			"byteOffset":1008,
			"target":34963
		}
	],
	"samplers":[
		{
			"magFilter":9728,
			"minFilter":9984
		}
	],
	"buffers":[
		{
			"byteLength":1032,
			"uri":"untitled.bin"
		}
	]
}
