{
	"asset":{
		"generator":"Khronos glTF Blender I/O v3.5.30",
		"version":"2.0"
	},
	"extensionsUsed":[
		"KHR_materials_specular",
		"KHR_materials_ior",
		"KHR_texture_transform",
		"KHR_materials_emissive_strength"
	],
	"extensionsRequired":[
		"KHR_texture_transform"
	],
	"scene":0,
	"scenes":[
		{
			"name":"Scene",
			"nodes":[
				8
			]
		}
	],
	"nodes":[
		{
			"mesh":0,
			"name":"Stone 1 Decimate 1.001"
		},
		{
			"mesh":1,
			"name":"Stone 1 Decimate 1.002"
		},
		{
			"mesh":2,
			"name":"Stone 1 Decimate 3"
		},
		{
			"mesh":3,
			"name":"Stone 2 Decimate 1.001"
		},
		{
			"children":[
				0,
				1,
				2,
				3
			],
			"mesh":4,
			"name":"Base (stone slabs)"
		},
		{
			"mesh":5,
			"name":"Cube.001"
		},
		{
			"mesh":6,
			"name":"Plane (actual portal).001"
		},
		{
			"mesh":7,
			"name":"Skull"
		},
		{
			"children":[
				4,
				5,
				6,
				7
			],
			"mesh":8,
			"name":"Portal",
			"scale":[
				0.10000000149011612,
				0.10000000149011612,
				0.10000000149011612
			]
		}
	],
	"materials":[
		{
			"doubleSided":true,
			"name":"Grey Stone",
			"pbrMetallicRoughness":{
				"baseColorFactor":[
					0.10653457790613174,
					0.10653457790613174,
					0.10653457790613174,
					1
				],
				"metallicFactor":0,
				"roughnessFactor":0.5
			}
		},
		{
			"doubleSided":true,
			"extensions":{
				"KHR_materials_specular":{
					"specularColorFactor":[
						2.371357614441398,
						2.371357614441398,
						2.371357614441398
					]
				},
				"KHR_materials_ior":{
					"ior":1.4500000476837158
				}
			},
			"name":"Crystal Glass",
			"pbrMetallicRoughness":{
				"baseColorFactor":[
					0.49859100580215454,
					0.7981590032577515,
					1,
					1
				],
				"metallicFactor":0,
				"roughnessFactor":0
			}
		},
		{
			"doubleSided":true,
			"emissiveFactor":[
				1,
				1,
				1
			],
			"emissiveTexture":{
				"extensions":{
					"KHR_texture_transform":{
						"offset":[
							-0.16764798760414124,
							0.16764798760414124
						]
					}
				},
				"index":0
			},
			"extensions":{
				"KHR_materials_emissive_strength":{
					"emissiveStrength":10
				},
				"KHR_materials_specular":{
					"specularColorTexture":{
						"index":1
					},
					"specularColorFactor":[
						2.3620583147143557,
						2.3620583147143557,
						2.3620583147143557
					]
				},
				"KHR_materials_ior":{
					"ior":1.4500000476837158
				}
			},
			"name":"Portal Emission",
			"normalTexture":{
				"index":2,
				"scale":0
			},
			"pbrMetallicRoughness":{
				"baseColorFactor":[
					0.3275292217731476,
					0.8000000715255737,
					0.3170212209224701,
					1
				],
				"metallicFactor":0,
				"roughnessFactor":0.34545454382896423
			}
		},
		{
			"doubleSided":true,
			"extensions":{
				"KHR_materials_specular":{
					"specularColorTexture":{
						"index":3
					},
					"specularColorFactor":[
						2.2225666986497985,
						2.2225666986497985,
						2.2225666986497985
					]
				},
				"KHR_materials_ior":{
					"ior":1.4500000476837158
				}
			},
			"name":"Bone",
			"pbrMetallicRoughness":{
				"baseColorTexture":{
					"index":4
				},
				"metallicFactor":0,
				"roughnessFactor":0.5
			}
		},
		{
			"doubleSided":true,
			"emissiveFactor":[
				1,
				0.41235366463661194,
				0
			],
			"extensions":{
				"KHR_materials_emissive_strength":{
					"emissiveStrength":15
				}
			},
			"name":"Yellow Emission",
			"pbrMetallicRoughness":{
				"baseColorFactor":[
					0.800000011920929,
					0.800000011920929,
					0.800000011920929,
					1
				],
				"metallicFactor":0,
				"roughnessFactor":0.5
			}
		}
	],
	"meshes":[
		{
			"name":"Plane.012",
			"primitives":[
				{
					"attributes":{
						"POSITION":0,
						"TEXCOORD_0":1,
						"NORMAL":2
					},
					"indices":3,
					"material":0
				}
			]
		},
		{
			"name":"Plane.002",
			"primitives":[
				{
					"attributes":{
						"POSITION":4,
						"TEXCOORD_0":5,
						"NORMAL":6
					},
					"indices":7,
					"material":0
				}
			]
		},
		{
			"name":"Plane.011",
			"primitives":[
				{
					"attributes":{
						"POSITION":8,
						"TEXCOORD_0":9,
						"NORMAL":10
					},
					"indices":11,
					"material":0
				}
			]
		},
		{
			"name":"Plane.013",
			"primitives":[
				{
					"attributes":{
						"POSITION":12,
						"TEXCOORD_0":13,
						"NORMAL":14
					},
					"indices":15,
					"material":0
				}
			]
		},
		{
			"name":"Plane.001",
			"primitives":[
				{
					"attributes":{
						"POSITION":16,
						"TEXCOORD_0":17,
						"TEXCOORD_1":18,
						"TEXCOORD_2":19,
						"NORMAL":20
					},
					"indices":21,
					"material":0
				}
			]
		},
		{
			"name":"Cube.014",
			"primitives":[
				{
					"attributes":{
						"POSITION":22,
						"TEXCOORD_0":23,
						"TEXCOORD_1":24,
						"NORMAL":25
					},
					"indices":26,
					"material":1
				}
			]
		},
		{
			"name":"Plane.006",
			"primitives":[
				{
					"attributes":{
						"POSITION":27,
						"TEXCOORD_0":28,
						"TEXCOORD_1":29,
						"NORMAL":30
					},
					"indices":31,
					"material":2
				}
			]
		},
		{
			"name":"Suzanne.004",
			"primitives":[
				{
					"attributes":{
						"POSITION":32,
						"TEXCOORD_0":33,
						"NORMAL":34
					},
					"indices":35,
					"material":3
				},
				{
					"attributes":{
						"POSITION":36,
						"TEXCOORD_0":37,
						"NORMAL":38
					},
					"indices":39,
					"material":4
				}
			]
		},
		{
			"name":"Cube.015",
			"primitives":[
				{
					"attributes":{
						"POSITION":40,
						"TEXCOORD_0":41,
						"NORMAL":42
					},
					"indices":43,
					"material":0
				}
			]
		}
	],
	"textures":[
		{
			"sampler":0,
			"source":0
		},
		{
			"sampler":0,
			"source":1
		},
		{
			"sampler":0,
			"source":2
		},
		{
			"sampler":0,
			"source":3
		},
		{
			"sampler":0,
			"source":4
		}
	],
	"images":[
		{
			"mimeType":"image/png",
			"name":"Portal_Color",
			"uri":"Portal_Color.png"
		},
		{
			"mimeType":"image/png",
			"name":"Image",
			"uri":"Image.png"
		},
		{
			"mimeType":"image/png",
			"name":"Portal_Normal",
			"uri":"Portal_Normal.png"
		},
		{
			"mimeType":"image/png",
			"name":"Image",
			"uri":"Image-1.png"
		},
		{
			"mimeType":"image/jpeg",
			"name":"Skull_Color",
			"uri":"Skull_Color.jpg"
		}
	],
	"accessors":[
		{
			"bufferView":0,
			"componentType":5126,
			"count":208,
			"max":[
				2.310102939605713,
				-0.8484936952590942,
				0.6281920671463013
			],
			"min":[
				1.534156084060669,
				-1.6237461566925049,
				0.3401188850402832
			],
			"type":"VEC3"
		},
		{
			"bufferView":1,
			"componentType":5126,
			"count":208,
			"type":"VEC2"
		},
		{
			"bufferView":2,
			"componentType":5126,
			"count":208,
			"type":"VEC3"
		},
		{
			"bufferView":3,
			"componentType":5123,
			"count":342,
			"type":"SCALAR"
		},
		{
			"bufferView":4,
			"componentType":5126,
			"count":208,
			"max":[
				3.195955991744995,
				2.839069366455078,
				0.35054150223731995
			],
			"min":[
				2.416505813598633,
				2.0638163089752197,
				0.06040845811367035
			],
			"type":"VEC3"
		},
		{
			"bufferView":5,
			"componentType":5126,
			"count":208,
			"type":"VEC2"
		},
		{
			"bufferView":6,
			"componentType":5126,
			"count":208,
			"type":"VEC3"
		},
		{
			"bufferView":7,
			"componentType":5123,
			"count":342,
			"type":"SCALAR"
		},
		{
			"bufferView":8,
			"componentType":5126,
			"count":185,
			"max":[
				0.8573640584945679,
				2.8325321674346924,
				1.3007193803787231
			],
			"min":[
				0.12086275964975357,
				2.067640781402588,
				0.5448700785636902
			],
			"type":"VEC3"
		},
		{
			"bufferView":9,
			"componentType":5126,
			"count":185,
			"type":"VEC2"
		},
		{
			"bufferView":10,
			"componentType":5126,
			"count":185,
			"type":"VEC3"
		},
		{
			"bufferView":11,
			"componentType":5123,
			"count":294,
			"type":"SCALAR"
		},
		{
			"bufferView":12,
			"componentType":5126,
			"count":232,
			"max":[
				3.187828540802002,
				-2.182142972946167,
				0.7022664546966553
			],
			"min":[
				0.9310392141342163,
				-4.276649475097656,
				0.2706058621406555
			],
			"type":"VEC3"
		},
		{
			"bufferView":13,
			"componentType":5126,
			"count":232,
			"type":"VEC2"
		},
		{
			"bufferView":14,
			"componentType":5126,
			"count":232,
			"type":"VEC3"
		},
		{
			"bufferView":15,
			"componentType":5123,
			"count":288,
			"type":"SCALAR"
		},
		{
			"bufferView":16,
			"componentType":5126,
			"count":561,
			"max":[
				2.536201000213623,
				3.982868194580078,
				0.5747383832931519
			],
			"min":[
				-2.536201000213623,
				-4.060082912445068,
				-0.02184087038040161
			],
			"type":"VEC3"
		},
		{
			"bufferView":17,
			"componentType":5126,
			"count":561,
			"type":"VEC2"
		},
		{
			"bufferView":18,
			"componentType":5126,
			"count":561,
			"type":"VEC2"
		},
		{
			"bufferView":19,
			"componentType":5126,
			"count":561,
			"type":"VEC2"
		},
		{
			"bufferView":20,
			"componentType":5126,
			"count":561,
			"type":"VEC3"
		},
		{
			"bufferView":21,
			"componentType":5123,
			"count":1128,
			"type":"SCALAR"
		},
		{
			"bufferView":22,
			"componentType":5126,
			"count":96,
			"max":[
				0.5210053324699402,
				2.043306827545166,
				5.471299648284912
			],
			"min":[
				0.3464130759239197,
				-2.1515982151031494,
				1.7165658473968506
			],
			"type":"VEC3"
		},
		{
			"bufferView":23,
			"componentType":5126,
			"count":96,
			"type":"VEC2"
		},
		{
			"bufferView":24,
			"componentType":5126,
			"count":96,
			"type":"VEC2"
		},
		{
			"bufferView":25,
			"componentType":5126,
			"count":96,
			"type":"VEC3"
		},
		{
			"bufferView":26,
			"componentType":5123,
			"count":96,
			"type":"SCALAR"
		},
		{
			"bufferView":27,
			"componentType":5126,
			"count":27730,
			"max":[
				0.009690810926258564,
				2.091458797454834,
				5.667397499084473
			],
			"min":[
				-0.009690796956419945,
				-2.091325044631958,
				0.50261390209198
			],
			"type":"VEC3"
		},
		{
			"bufferView":28,
			"componentType":5126,
			"count":27730,
			"type":"VEC2"
		},
		{
			"bufferView":29,
			"componentType":5126,
			"count":27730,
			"type":"VEC2"
		},
		{
			"bufferView":30,
			"componentType":5126,
			"count":27730,
			"type":"VEC3"
		},
		{
			"bufferView":31,
			"componentType":5123,
			"count":161376,
			"type":"SCALAR"
		},
		{
			"bufferView":32,
			"componentType":5126,
			"count":30649,
			"max":[
				1.4511728286743164,
				0.4193494915962219,
				6.198262691497803
			],
			"min":[
				0.3654017448425293,
				-0.5029482245445251,
				5.114491939544678
			],
			"type":"VEC3"
		},
		{
			"bufferView":33,
			"componentType":5126,
			"count":30649,
			"type":"VEC2"
		},
		{
			"bufferView":34,
			"componentType":5126,
			"count":30649,
			"type":"VEC3"
		},
		{
			"bufferView":35,
			"componentType":5123,
			"count":153936,
			"type":"SCALAR"
		},
		{
			"bufferView":36,
			"componentType":5126,
			"count":2263,
			"max":[
				1.1626639366149902,
				0.25604891777038574,
				6.177009105682373
			],
			"min":[
				0.43866366147994995,
				-0.26236194372177124,
				5.363532543182373
			],
			"type":"VEC3"
		},
		{
			"bufferView":37,
			"componentType":5126,
			"count":2263,
			"type":"VEC2"
		},
		{
			"bufferView":38,
			"componentType":5126,
			"count":2263,
			"type":"VEC3"
		},
		{
			"bufferView":39,
			"componentType":5123,
			"count":6624,
			"type":"SCALAR"
		},
		{
			"bufferView":40,
			"componentType":5126,
			"count":848,
			"max":[
				0.44554704427719116,
				2.387369155883789,
				6.353917598724365
			],
			"min":[
				-0.48594823479652405,
				-2.5456643104553223,
				0.43241286277770996
			],
			"type":"VEC3"
		},
		{
			"bufferView":41,
			"componentType":5126,
			"count":848,
			"type":"VEC2"
		},
		{
			"bufferView":42,
			"componentType":5126,
			"count":848,
			"type":"VEC3"
		},
		{
			"bufferView":43,
			"componentType":5123,
			"count":1692,
			"type":"SCALAR"
		}
	],
	"bufferViews":[
		{
			"buffer":0,
			"byteLength":2496,
			"byteOffset":0,
			"target":34962
		},
		{
			"buffer":0,
			"byteLength":1664,
			"byteOffset":2496,
			"target":34962
		},
		{
			"buffer":0,
			"byteLength":2496,
			"byteOffset":4160,
			"target":34962
		},
		{
			"buffer":0,
			"byteLength":684,
			"byteOffset":6656,
			"target":34963
		},
		{
			"buffer":0,
			"byteLength":2496,
			"byteOffset":7340,
			"target":34962
		},
		{
			"buffer":0,
			"byteLength":1664,
			"byteOffset":9836,
			"target":34962
		},
		{
			"buffer":0,
			"byteLength":2496,
			"byteOffset":11500,
			"target":34962
		},
		{
			"buffer":0,
			"byteLength":684,
			"byteOffset":13996,
			"target":34963
		},
		{
			"buffer":0,
			"byteLength":2220,
			"byteOffset":14680,
			"target":34962
		},
		{
			"buffer":0,
			"byteLength":1480,
			"byteOffset":16900,
			"target":34962
		},
		{
			"buffer":0,
			"byteLength":2220,
			"byteOffset":18380,
			"target":34962
		},
		{
			"buffer":0,
			"byteLength":588,
			"byteOffset":20600,
			"target":34963
		},
		{
			"buffer":0,
			"byteLength":2784,
			"byteOffset":21188,
			"target":34962
		},
		{
			"buffer":0,
			"byteLength":1856,
			"byteOffset":23972,
			"target":34962
		},
		{
			"buffer":0,
			"byteLength":2784,
			"byteOffset":25828,
			"target":34962
		},
		{
			"buffer":0,
			"byteLength":576,
			"byteOffset":28612,
			"target":34963
		},
		{
			"buffer":0,
			"byteLength":6732,
			"byteOffset":29188,
			"target":34962
		},
		{
			"buffer":0,
			"byteLength":4488,
			"byteOffset":35920,
			"target":34962
		},
		{
			"buffer":0,
			"byteLength":4488,
			"byteOffset":40408,
			"target":34962
		},
		{
			"buffer":0,
			"byteLength":4488,
			"byteOffset":44896,
			"target":34962
		},
		{
			"buffer":0,
			"byteLength":6732,
			"byteOffset":49384,
			"target":34962
		},
		{
			"buffer":0,
			"byteLength":2256,
			"byteOffset":56116,
			"target":34963
		},
		{
			"buffer":0,
			"byteLength":1152,
			"byteOffset":58372,
			"target":34962
		},
		{
			"buffer":0,
			"byteLength":768,
			"byteOffset":59524,
			"target":34962
		},
		{
			"buffer":0,
			"byteLength":768,
			"byteOffset":60292,
			"target":34962
		},
		{
			"buffer":0,
			"byteLength":1152,
			"byteOffset":61060,
			"target":34962
		},
		{
			"buffer":0,
			"byteLength":192,
			"byteOffset":62212,
			"target":34963
		},
		{
			"buffer":0,
			"byteLength":332760,
			"byteOffset":62404,
			"target":34962
		},
		{
			"buffer":0,
			"byteLength":221840,
			"byteOffset":395164,
			"target":34962
		},
		{
			"buffer":0,
			"byteLength":221840,
			"byteOffset":617004,
			"target":34962
		},
		{
			"buffer":0,
			"byteLength":332760,
			"byteOffset":838844,
			"target":34962
		},
		{
			"buffer":0,
			"byteLength":322752,
			"byteOffset":1171604,
			"target":34963
		},
		{
			"buffer":0,
			"byteLength":367788,
			"byteOffset":1494356,
			"target":34962
		},
		{
			"buffer":0,
			"byteLength":245192,
			"byteOffset":1862144,
			"target":34962
		},
		{
			"buffer":0,
			"byteLength":367788,
			"byteOffset":2107336,
			"target":34962
		},
		{
			"buffer":0,
			"byteLength":307872,
			"byteOffset":2475124,
			"target":34963
		},
		{
			"buffer":0,
			"byteLength":27156,
			"byteOffset":2782996,
			"target":34962
		},
		{
			"buffer":0,
			"byteLength":18104,
			"byteOffset":2810152,
			"target":34962
		},
		{
			"buffer":0,
			"byteLength":27156,
			"byteOffset":2828256,
			"target":34962
		},
		{
			"buffer":0,
			"byteLength":13248,
			"byteOffset":2855412,
			"target":34963
		},
		{
			"buffer":0,
			"byteLength":10176,
			"byteOffset":2868660,
			"target":34962
		},
		{
			"buffer":0,
			"byteLength":6784,
			"byteOffset":2878836,
			"target":34962
		},
		{
			"buffer":0,
			"byteLength":10176,
			"byteOffset":2885620,
			"target":34962
		},
		{
			"buffer":0,
			"byteLength":3384,
			"byteOffset":2895796,
			"target":34963
		}
	],
	"samplers":[
		{
			"magFilter":9729,
			"minFilter":9987
		}
	],
	"buffers":[
		{
			"byteLength":2899180,
			"uri":"portal.bin"
		}
	]
}
